/* XPM */
static char *_aef9ed38ce240f8b7e8436aaf101ad57z4GeACPhGCjjKco[] = {
/* columns rows colors chars-per-pixel */
"64 64 19 1 ",
"  c black",
". c #2F2500",
"X c #C8A000",
"o c #EEBF00",
"O c #413400",
"+ c #D6AB00",
"@ c #A38300",
"# c #FFCC00",
"$ c #FFCF00",
"% c #1B1600",
"& c #6A5500",
"* c #F8C600",
"= c #785F00",
"- c #E5B700",
"; c #0D0A00",
": c #876C00",
"> c #594700",
", c #967800",
"< c #B69100",
/* pixels */
"                            %.O>&==&>O.%                        ",
"                        %O=@+-o*####**-+<=O%                    ",
"                     ;O,+*$$$#$#########$$*+,O;                 ",
"                   ;&X*$$##################$$*X&%               ",
"                 ;>X#$########################$#X>;             ",
"                .<*$############################$*<O            ",
"              ;&-$################################$-=;          ",
"             %@*$####################################@%         ",
"            .<$######################################$X.        ",
"           .X$#########################################+.       ",
"          .X$##########################################$+.      ",
"         %X$############################################$X%     ",
"        ;@$##############################################$<;    ",
"        =##################################################:    ",
"       Oo##################################################oO   ",
"      ;X$##################################################$X%  ",
"      =######################################################=  ",
"     %+$####################################################$+. ",
"     :####################################################$$-:% ",
"    %+$#################################################$$-:.   ",
"    &#################################################$#+:.     ",
"   ;<$##############################################$#+:%       ",
"   .o#############################################$#+=%         ",
"   &############################################$#+=%           ",
"   @$#########################################$#+=%             ",
"  %X$#######################################$#+=%               ",
"  .-######################################$#+&%                 ",
"  >*####################################$#X&%                   ",
"  =###################################$#X&%                     ",
"  :#################################$#X&%                       ",
"  @$##############################$#X&%                         ",
"  @$##############################X>;                           ",
"  @$##############################<O                            ",
"  @$###############################o@O                          ",
"  ,#################################$o@O                        ",
"  =###################################$o@O                      ",
"  >*####################################$o@O                    ",
"  Oo######################################$o@O                  ",
"  %+$#######################################$o@O                ",
"  ;@$#########################################$o@O              ",
"   =############################################$o@O            ",
"   .o#############################################$o@O          ",
"   ;X$##############################################$o@O        ",
"    =#################################################$o@O      ",
"    .-$#################################################$o@O    ",
"     ,$###################################################$o@O  ",
"     .-#####################################################$+% ",
"      :$####################################################$:  ",
"      %+$##################################################$+%  ",
"       >*##################################################*>   ",
"        ,$################################################$,    ",
"        %X$##############################################$X%    ",
"         .+$############################################$+.     ",
"          O-$##########################################$-O      ",
"           O-$########################################$->       ",
"            O+$######################################$+O        ",
"             .<#####################################$X.         ",
"              %,*$################################$*,%          ",
"                >+#$############################$#+>            ",
"                 %:-$$########################$$-:%             ",
"                   .:+#$####################$#+:.               ",
"                     %&<o#$$############$$#o<&%                 ",
"                       ;.&@X-*###$$###*-X@&.;                   ",
"                           %.>&:,@@,:&>.%                       "
};
