/* XPM */
static char *_15ce585030d4814bd2b1000aa4df144TiDr310E4uuODplP[] = {
/* columns rows colors chars-per-pixel */
"64 64 17 1 ",
"  c #6E2F20",
". c #753222",
"X c #7A4538",
"o c #7A6864",
"O c #884231",
"+ c #7B716E",
"@ c #7C3B2C",
"# c #813624",
"$ c #833926",
"% c #7E3624",
"& c #79635E",
"* c #79574F",
"= c #7A4E44",
"- c #714E46",
"; c #7C5C54",
": c #6E3C30",
"> c #7D7877",
/* pixels */
"%%%%%%%%%%%%%%@o%%%%%%%%%%%%%%%=;%%%%%%%%%%%%%%%&:              ",
"$$$$$$$$$$$$$$@&@$$$$$$$$$$#$$#=*#$$$$$$$$$$#$$%;:              ",
"$$$$$$$$$#$$$$@&@$$$$$$$$$$$$$$=*#$$$$$$$$$$$$$#;:              ",
"$$$$$$$$$$$$$$@&@$$$$$$$$$$$$$#=*#$$$$$$$$$$$$$%;:              ",
"$$$$$$$$$$$$$$@&@$$$$$$$$$#$$$$=;#$$$$$$$$$$$$$$;:              ",
"$$$$$$$$$$$$$$@&@$$$$$$$$$$$$$#=*#$$$$$$$$$$$$$%;:              ",
"@@@@@@@@@@@@@@X+X@@@@@@@@@@@@@@*&@@@@@@@@@@@@@@@o- : : :: : ::: ",
"++++++>>++++++>>+++++++>>++++++>>>++++++>+++++++>>+++++++>++++++",
"XXXXXX;&:::::::::X:::X:+*XXXXXXXXXXXXXX=+XXXXXXXXXXXXXXX;oXXXXXX",
"#$#$$#=*...%.......... &X#$#$#$####$#$$@&%$$$$$#$$#$#$$#=*#$#$$$",
"#$$$$$=*...............&X$$$$$$$$$$$$$$@&@$$$$$$$$#$$$$$=*#$$$$$",
"$$$$$#=*.............. &X$$$$$$$$$$$$$$@&@$$$$$$$$$$$$$#=*#$$$$$",
"$#$$$$=*...............&X$$$$$$$$$$$$$$@&@$$$$$$$$$#$$$$=*#$$$$$",
"$$$$$$=-.............. &X$$$$$$$$$$$$$$@&@$$$$$$$$$$$$$#=*#$$$$$",
"%%%%%%=*  . ....... .  oX%%%%%%%%%%%%%%@o@%%%%%%%%%%%%%%=;%%%%%%",
"oooooo>>ooooooooooooooo>+oooooooooooooo+>+oooooooooooooo>>oooooo",
"*;*;*;*;*;*;;;&>;=*=*=*==**=*=*o+*;*;**;*;*;*;*;>&--------------",
"OOOOOOOOOOOOOOXo%######$#######=;OOOOOOOOOOOOOOO&:              ",
"OOOOOOOOOOOOOOOo@$$$$$$$$#$$$$$=;OOOOOOOOOOOOOOO&:              ",
"OOOOOOOOOOOOOOXo@$$$$$$$$$$$$$#=;OOOOOOOOOOOOOOO&:              ",
"OOOOOOOOOOOOOOOo@$$$$$$$$$$$$$#=;OOOOOOOOOOOOOOO&:              ",
"OOOOOOOOOOOOOOXo@$$$$$$$$$$$$$$=;OOOOOOOOOOOOOOO&:              ",
"OOOOOOOOOOOOOOOo%##############=;OOOOOOOOOOOOOOO&:              ",
";;;;;;;;;;;;;;&+;**************o+;;;;;;;;;;;;;;;>&----*----*----",
"&&&&&&+>ooo&oo&&o&&&&oo>+&oo&&o&&oo&&&o+>o&&&&&&&&ooo&&&>>o&o&o&",
"      -*%%#%%%%%%%#%%%%oX%%%#%%%#%%#%%%@o...%...%.......-;%%%%%%",
"      -*#$$$$$$$$$$$$$%&X$$$$$$$$$$$$$$@&.%%%%%%%%%%%%%%=*#$$$$$",
"      -*#$$$#$$$$$$$$$%&X$$$$$$$$$$$$$$@&.%%.%%%%%%%%%%.=*#$$$$$",
"      -*#$$$$$$$$$$$$$%&X$$$$$$$$$$$$$$@&.%%%@.%.@.%%.%%-*#$$$$$",
"      -*#$$$$#$$$$$$$$%&X$$$$$$$$$$$$$$@&.%.%%%%%%%.@%%%=*#$$$$$",
"      -*#$$#$#$$#$$$$$%&X#$$$$$$$$$$$$#@&.%%%.%%%.%%%.%.X*#$$$$$",
"::::::&oXXXXXXXXXXXXXXX+*XXXXXXXXXXXXXX=+=XXXXXX:XXXXXXX&oXXXXXX",
"++++++++++++++>>+++++++>+++++++>>+++++++++++++++>>++++++++++++++",
"@@@@@@@@@@@@@@X+: : : : : :  : -&@@@@@@@@@@@@@@@o=@@@@@@@@@@@@@@",
"$$$$$$$$$$$$$$@&               -*#$$$$$$$$$$$$$#&X$$$$$$$$$$$$$$",
"$$$$$$$$$$$$$$@&               -*#$$$$$$$$$$$$$%&X$$$$$$$$$#$$$$",
"$$$$$$$$$$$$$$@&               :*#$$$$$$$$$$$$$%&X$$$$$$$$$$$$$$",
"$$$$$$$$$#$$$$@&     .  .      -*#$$$$$$$$$$$$$#&X$$$$$$$$$$$$$$",
"$$$$$$$$$$$$$$@&   .      .    -*#$$$$#$$$$$$$$%&X$$$$$$$$$$$$$$",
"@@@@@@@@@@@@@@Xo: :  :  :   :  -;@@@@@@@@@@@@@@@o=@@@@@@@@@@@@@@",
"+++++++++++++++>+++++++++++++++>>++++++++++++++++>+++o++++++++++",
"XXXXXX&+===============+;XXXXXXXXXXXXXX=+=XXXXXXXXXXXXXX&oXXXXXX",
"#$##$#=;OOOOOOOOOOOOOOO&X#$$$$##$#$##$$@&%$$$$$#$$#$##$#=*#$$$$$",
"#$$$$$=;OOOOOOOOOOOOOOO&X$$$$$$$$$$$$$$@&@$$$$$$$$#$$$$#=*#$$$$$",
"$$$$$#=;OOOOOOOOOOOOOOO&X$$$$$$$$$$$$$$@&@$$$$$$$$$$$$$#=*#$$$$$",
"$#$$$$=;OOOOOOOOOOOOOOO&X$$$$$$$$$#$$$$@&@$$$$$$$$$#$$$$=*#$$$$$",
"$$$$$$=;OOOOOOOOOOOOOOO&X$$$$$$$$$$$$$$@&@$$$$$$$$$$$$$$=*#$$$$#",
"#####%=;OOOOOOOOOOOOOOO&X%%%####%%####%@o@#%%####%%####%=*%#%%##",
"&&&&&&+>ooooooooooooo&o>+&&&&&&&&&&&&&&o>o&&&&&&&&&&&&&&+>&&&&&&",
"*******-******&>;****;*********++;*;***;*;***;*;>o**************",
"               o%###$##########=*%#############%&:.  .  . .   ..",
"              :&@$$$$$$$$#$$$$$=;#$$$$$$$$#$$$$#;X..............",
"              :&@$$$$$$$$$$$$$#=*#$$$$$$$$$$$$$#;X..............",
"              :&@$$$$$$$$$$$$$#=*#$$$$$$$$$$$$$%;:..............",
"              :&@$$$$$$$$$$$$$$=;#$$$$$$$$$$$$$$&:..............",
"              :&%###########$##=*############$#%;:..............",
"--------------*>*==============o+==============*+&--------------",
"oooooo>>ooooooooooo+oo+>+ooooooo&oooooo+>+oo&ooooooooooo>>oooooo",
"%%%%%%=;%%$%%%%%%$%%%%@oX%%@%$%%@%%@%%%Xo               -;%%%%%%",
"#$$$$$=*#$$$$$$$$$$$$$%&X$$$$$$$$$$$$$$@&               -*#$$$$$",
"$$$$$#=*#$$$$$$$$$$$$$%&X$$$$$$$$$$$$$$@&               -*#$$$$$",
"$$$$$#=*#$$$$$$$$$$$$$%&X$$$$$$$$$$$$$$@&               -;#$$$$$",
"$$$$$$=*#$$$$#$$$$$$$$%&X$$$$$$$$$$$$$$@&   .    .  .   -*#$$$$$",
"$$$$$#=*#$$$$$$$$$$$$$%&X$$$$$$$$$$$$$$@&               -*#$$$$$"
};
